M48
;Layer_Color=9474304
;FILE_FORMAT=2:5
INCH,TZ
;TYPE=PLATED
T1F00S00C0.04016
;TYPE=NON_PLATED
T2F00S00C0.09528
%
T01
X88283Y9818
X98283
X108283
X118283
X128283
X138283
X148283
X148701Y66818
X138701
X128701
X118701
X108701
X98701
X88701
X88283Y89818
X98283
X108283
X118283
X128283
X138283
X148283
X158283
X168283
X178283
X188283
X198283
X208283
X218283
Y9818
X208283
X198283
X188283
X178283
X168283
X158283
X158701Y66818
T02
X9996Y9464
Y90172
X234405
Y9464
M30
