G04*
G04 #@! TF.GenerationSoftware,Altium Limited,Altium Designer,21.2.0 (30)*
G04*
G04 Layer_Color=8388736*
%FSLAX25Y25*%
%MOIN*%
G70*
G04*
G04 #@! TF.SameCoordinates,7A118134-AABF-4D3B-888A-8C7CAF6D2988*
G04*
G04*
G04 #@! TF.FilePolarity,Negative*
G04*
G01*
G75*
%ADD14R,0.06824X0.06824*%
%ADD15C,0.10328*%
%ADD16C,0.06824*%
D14*
X88283Y9818D02*
D03*
X218283Y89818D02*
D03*
D15*
X9996Y9464D02*
D03*
Y90172D02*
D03*
X234405D02*
D03*
Y9464D02*
D03*
D16*
X98283Y9818D02*
D03*
X108283D02*
D03*
X118283D02*
D03*
X128283D02*
D03*
X138283D02*
D03*
X148283D02*
D03*
X158283D02*
D03*
X168283D02*
D03*
X178283D02*
D03*
X188283D02*
D03*
X198283D02*
D03*
X208283D02*
D03*
X218283D02*
D03*
X208283Y89818D02*
D03*
X198283D02*
D03*
X188283D02*
D03*
X178283D02*
D03*
X168283D02*
D03*
X158283D02*
D03*
X148283D02*
D03*
X138283D02*
D03*
X128283D02*
D03*
X118283D02*
D03*
X108283D02*
D03*
X98283D02*
D03*
X88283D02*
D03*
X148701Y66818D02*
D03*
X158701D02*
D03*
X138701D02*
D03*
X128701D02*
D03*
X118701D02*
D03*
X108701D02*
D03*
X98701D02*
D03*
X88701D02*
D03*
M02*
