G04*
G04 #@! TF.GenerationSoftware,Altium Limited,Altium Designer,21.2.0 (30)*
G04*
G04 Layer_Color=65280*
%FSLAX25Y25*%
%MOIN*%
G70*
G04*
G04 #@! TF.SameCoordinates,7A118134-AABF-4D3B-888A-8C7CAF6D2988*
G04*
G04*
G04 #@! TF.FilePolarity,Positive*
G04*
G01*
G75*
%ADD13C,0.01000*%
D13*
X219472Y22915D02*
Y19766D01*
X217898D01*
X217373Y20291D01*
Y22390D01*
X217898Y22915D01*
X219472D01*
X214750Y19766D02*
X215799D01*
X216324Y20291D01*
Y21340D01*
X215799Y21865D01*
X214750D01*
X214225Y21340D01*
Y20816D01*
X216324D01*
X213175Y19766D02*
X211601D01*
X211076Y20291D01*
X211601Y20816D01*
X212650D01*
X213175Y21340D01*
X212650Y21865D01*
X211076D01*
X210027Y19766D02*
X208977D01*
X209502D01*
Y21865D01*
X210027D01*
X206353Y18717D02*
X205828D01*
X205304Y19241D01*
Y21865D01*
X206878D01*
X207403Y21340D01*
Y20291D01*
X206878Y19766D01*
X205304D01*
X204254D02*
Y21865D01*
X202680D01*
X202155Y21340D01*
Y19766D01*
X199531D02*
X200581D01*
X201106Y20291D01*
Y21340D01*
X200581Y21865D01*
X199531D01*
X199007Y21340D01*
Y20816D01*
X201106D01*
X195858Y22915D02*
Y19766D01*
X197432D01*
X197957Y20291D01*
Y21340D01*
X197432Y21865D01*
X195858D01*
X191135Y19766D02*
Y22390D01*
Y21340D01*
X191660D01*
X190610D01*
X191135D01*
Y22390D01*
X190610Y22915D01*
X188511Y19766D02*
X187462D01*
X186937Y20291D01*
Y21340D01*
X187462Y21865D01*
X188511D01*
X189036Y21340D01*
Y20291D01*
X188511Y19766D01*
X185888Y21865D02*
Y19766D01*
Y20816D01*
X185363Y21340D01*
X184838Y21865D01*
X184313D01*
X177491Y22915D02*
X179590D01*
Y19766D01*
X177491D01*
X179590Y21340D02*
X178541D01*
X176442Y21865D02*
Y20291D01*
X175917Y19766D01*
X174343D01*
Y21865D01*
X173293D02*
Y19766D01*
Y20816D01*
X172768Y21340D01*
X172244Y21865D01*
X171719D01*
X169620Y19766D02*
X168570D01*
X168045Y20291D01*
Y21340D01*
X168570Y21865D01*
X169620D01*
X170144Y21340D01*
Y20291D01*
X169620Y19766D01*
X166996Y18717D02*
Y21865D01*
X165422D01*
X164897Y21340D01*
Y20291D01*
X165422Y19766D01*
X166996D01*
X162273D02*
X163323D01*
X163847Y20291D01*
Y21340D01*
X163323Y21865D01*
X162273D01*
X161748Y21340D01*
Y20816D01*
X163847D01*
X160174Y21865D02*
X159125D01*
X158600Y21340D01*
Y19766D01*
X160174D01*
X160699Y20291D01*
X160174Y20816D01*
X158600D01*
X157550Y19766D02*
Y21865D01*
X155976D01*
X155451Y21340D01*
Y19766D01*
X149154Y22390D02*
X149679Y22915D01*
X150728D01*
X151253Y22390D01*
Y21865D01*
X150728Y21340D01*
X149679D01*
X149154Y20816D01*
Y20291D01*
X149679Y19766D01*
X150728D01*
X151253Y20291D01*
X148104Y18717D02*
Y21865D01*
X146530D01*
X146005Y21340D01*
Y20291D01*
X146530Y19766D01*
X148104D01*
X144431Y21865D02*
X143382D01*
X142857Y21340D01*
Y19766D01*
X144431D01*
X144956Y20291D01*
X144431Y20816D01*
X142857D01*
X139708Y21865D02*
X141282D01*
X141807Y21340D01*
Y20291D01*
X141282Y19766D01*
X139708D01*
X137084D02*
X138134D01*
X138659Y20291D01*
Y21340D01*
X138134Y21865D01*
X137084D01*
X136560Y21340D01*
Y20816D01*
X138659D01*
X130262Y22390D02*
X130787Y22915D01*
X131837D01*
X132361Y22390D01*
Y20291D01*
X131837Y19766D01*
X130787D01*
X130262Y20291D01*
X128688Y21865D02*
X127639D01*
X127114Y21340D01*
Y19766D01*
X128688D01*
X129213Y20291D01*
X128688Y20816D01*
X127114D01*
X126064Y19766D02*
Y21865D01*
X125540D01*
X125015Y21340D01*
Y19766D01*
Y21340D01*
X124490Y21865D01*
X123965Y21340D01*
Y19766D01*
X122916Y18717D02*
Y21865D01*
X121341D01*
X120817Y21340D01*
Y20291D01*
X121341Y19766D01*
X122916D01*
X114519D02*
X116619D01*
X114519Y21865D01*
Y22390D01*
X115044Y22915D01*
X116094D01*
X116619Y22390D01*
X113470D02*
X112945Y22915D01*
X111896D01*
X111371Y22390D01*
Y20291D01*
X111896Y19766D01*
X112945D01*
X113470Y20291D01*
Y22390D01*
X108222Y19766D02*
X110321D01*
X108222Y21865D01*
Y22390D01*
X108747Y22915D01*
X109797D01*
X110321Y22390D01*
X107173Y19766D02*
X106123D01*
X106648D01*
Y22915D01*
X107173Y22390D01*
M02*
